<?xml version="1.0" standalone="no"?><!DOCTYPE svg PUBLIC "-//W3C//DTD SVG 1.1//EN" "http://www.w3.org/Graphics/SVG/1.1/DTD/svg11.dtd"><svg t="1757732993594" class="icon" viewBox="0 0 1024 1024" version="1.1" xmlns="http://www.w3.org/2000/svg" p-id="2566" xmlns:xlink="http://www.w3.org/1999/xlink" width="16" height="16"><path d="M870.791 761.964h-36.042v72.082c0 39.812-32.269 72.085-72.085 72.085H149.949c-39.815 0-72.089-32.272-72.089-72.085v-504.59c0-39.812 32.272-72.085 72.089-72.085h36.038v-72.089c0-39.812 32.272-72.082 72.085-72.082H870.79c39.812 0 72.085 32.269 72.085 72.082v504.592c0 39.814-32.272 72.09-72.085 72.09zM149.95 293.41c-19.914 0-36.046 16.14-36.046 36.046v504.589c0 19.905 16.132 36.046 36.046 36.046h612.715c19.905 0 36.038-16.14 36.038-36.046V329.456c0-19.905-16.132-36.046-36.038-36.046H149.95z m756.888-108.127c0-19.905-16.135-36.038-36.046-36.038h-612.72c-19.902 0-36.038 16.132-36.038 36.038v72.089h540.63c39.815 0 72.085 32.272 72.085 72.085v396.461h36.042c19.91 0 36.046-16.135 36.046-36.042V185.283zM582.45 617.792h-72.089v144.173H402.238V617.792h-72.084v36.046h-72.089V437.584h144.173v-72.089h108.123v72.089h144.173v216.254h-72.085v-36.046zM402.239 473.621h-72.084v108.127h72.085V473.621z m180.211 0h-72.089v108.127h72.089V473.621z" p-id="2567" fill="#515151"></path></svg>