<?xml version="1.0" standalone="no"?><!DOCTYPE svg PUBLIC "-//W3C//DTD SVG 1.1//EN" "http://www.w3.org/Graphics/SVG/1.1/DTD/svg11.dtd"><svg t="1757733330193" class="icon" viewBox="0 0 1024 1024" version="1.1" xmlns="http://www.w3.org/2000/svg" p-id="1459" xmlns:xlink="http://www.w3.org/1999/xlink" width="16" height="16"><path d="M874.749 760.229h-36.621v73.245c0 40.455-32.801 73.249-73.249 73.249H142.257c-40.448 0-73.241-32.793-73.241-73.249V320.736c0-40.455 32.793-73.249 73.241-73.249h36.627v-73.252c0-40.455 32.793-73.245 73.252-73.245h622.611c40.46 0 73.252 32.789 73.252 73.245v512.741c0 40.458-32.793 73.253-73.252 73.253zM142.257 284.108c-20.224 0-36.621 16.4-36.621 36.627v512.738c0 20.227 16.397 36.627 36.621 36.627h622.622c20.224 0 36.621-16.4 36.621-36.627V320.735c0-20.227-16.397-36.627-36.621-36.627H142.257z m769.117-109.873c0-20.227-16.397-36.621-36.624-36.621H252.138c-20.23 0-36.627 16.394-36.627 36.621v73.252h549.371c40.448 0 73.249 32.793 73.249 73.249V723.6h36.621c20.227 0 36.624-16.397 36.624-36.624V174.233zM618.378 577.103s4.262-36.621-36.627-36.621c-16.672 0-36.621 8.017-36.621 36.621v146.498h-73.249V503.855h146.498c-2.187 0 73.249-4.516 73.249 73.249v146.498h-73.249V577.103zM215.51 393.982h219.747v36.627H288.759v109.873h109.87v36.621h-109.87v109.873h146.498V723.6H215.51V393.981z" p-id="1460" fill="#2c2c2c"></path></svg>